<svg xmlns="http://www.w3.org/2000/svg" width="1400" height="980" viewBox="0 0 1400 980">
<defs><linearGradient id="bg" x1="0" y1="0" x2="1" y2="1"><stop offset="0%" stop-color="#080b12"/><stop offset="100%" stop-color="#11192a"/></linearGradient><linearGradient id="a" x1="0" y1="0" x2="1" y2="0"><stop offset="0%" stop-color="#9cb1ff"/><stop offset="100%" stop-color="#7ce7d6"/></linearGradient></defs>
<rect width="1400" height="980" fill="url(#bg)"/>
<text x="90" y="90" fill="#f7f9fc" font-size="48" font-family="Arial" font-weight="700">Constraint Pinning Reference Model</text>
<text x="90" y="132" fill="#aeb7c9" font-size="24" font-family="Arial">CPRM v0.1 · Discussion Draft · Noah Alrajab</text>
<g font-family="Arial" font-size="28" font-weight="700">
<rect x="180" y="190" width="1040" height="78" rx="18" fill="#171d2b" stroke="#2f3a52"/><text x="225" y="240" fill="#f7f9fc">1. Intent</text>
<rect x="180" y="300" width="1040" height="78" rx="18" fill="#171d2b" stroke="#2f3a52"/><text x="225" y="350" fill="#f7f9fc">2. Constraint Registry</text>
<rect x="180" y="410" width="1040" height="78" rx="18" fill="#171d2b" stroke="#2f3a52"/><text x="225" y="460" fill="#f7f9fc">3. Context Resolver</text>
<rect x="150" y="520" width="1100" height="92" rx="22" fill="url(#a)"/><text x="225" y="578" fill="#071019" font-size="32">4. Constraint Pinning Layer</text>
<rect x="180" y="644" width="1040" height="78" rx="18" fill="#171d2b" stroke="#2f3a52"/><text x="225" y="694" fill="#f7f9fc">5. Decision Validator</text>
<rect x="180" y="754" width="1040" height="78" rx="18" fill="#171d2b" stroke="#2f3a52"/><text x="225" y="804" fill="#f7f9fc">6. Tool and Action Gateway</text>
<rect x="180" y="864" width="1040" height="78" rx="18" fill="#171d2b" stroke="#2f3a52"/><text x="225" y="914" fill="#f7f9fc">7. Evidence and Audit</text>
</g>
</svg>